<svg width="24" height="24" viewBox="0 0 24 24" fill="none" xmlns="http://www.w3.org/2000/svg">
<path d="M12 24C18.6274 24 24 18.6274 24 12C24 5.37258 18.6274 0 12 0C5.37258 0 0 5.37258 0 12C0 18.6274 5.37258 24 12 24Z" fill="#34E0A1"/>
<path d="M19.4111 9.65782L20.8592 8.08239H17.648C16.0404 6.98427 14.099 6.34473 11.9993 6.34473C9.90229 6.34473 7.96623 6.98565 6.3613 8.08239H3.14209L4.59014 9.65782C3.70255 10.4676 3.14613 11.6341 3.14613 12.9293C3.14613 15.3736 5.12783 17.3553 7.57207 17.3553C8.73319 17.3553 9.79105 16.9074 10.5808 16.1754L11.9993 17.72L13.4179 16.1767C14.2076 16.9088 15.2641 17.3553 16.4252 17.3553C18.8695 17.3553 20.8538 15.3736 20.8538 12.9293C20.8552 11.6328 20.2988 10.4663 19.4111 9.65782ZM7.57339 15.9246C5.91884 15.9246 4.57809 14.5839 4.57809 12.9293C4.57809 11.2748 5.91887 9.93402 7.57339 9.93402C9.2279 9.93402 10.5687 11.2748 10.5687 12.9293C10.5687 14.5839 9.2279 15.9246 7.57339 15.9246ZM12.0006 12.8422C12.0006 10.8712 10.5674 9.17916 8.67551 8.45647C9.69851 8.02874 10.8208 7.79143 11.9993 7.79143C13.1778 7.79143 14.3014 8.02874 15.3244 8.45647C13.434 9.18051 12.0006 10.8713 12.0006 12.8422ZM16.4266 15.9246C14.772 15.9246 13.4313 14.5839 13.4313 12.9293C13.4313 11.2748 14.772 9.93402 16.4266 9.93402C18.0811 9.93402 19.4219 11.2748 19.4219 12.9293C19.4219 14.5839 18.0811 15.9246 16.4266 15.9246ZM16.4266 11.3579C15.5591 11.3579 14.8565 12.0605 14.8565 12.928C14.8565 13.7955 15.5591 14.498 16.4266 14.498C17.2941 14.498 17.9966 13.7955 17.9966 12.928C17.9966 12.0618 17.2941 11.3579 16.4266 11.3579ZM9.14343 12.9293C9.14343 13.7968 8.44085 14.4994 7.57339 14.4994C6.70592 14.4994 6.00334 13.7968 6.00334 12.9293C6.00334 12.0618 6.70592 11.3593 7.57339 11.3593C8.44085 11.3579 9.14343 12.0618 9.14343 12.9293Z" fill="black"/>
</svg>
