<svg width="28" height="28" viewBox="0 0 28 28" fill="none" xmlns="http://www.w3.org/2000/svg">
<g clip-path="url(#clip0)">
<path d="M27.1938 16.9713C29.2215 7.85962 21.2392 -0.417881 11.865 1.17112C6.776 -1.98705 0 1.58179 0 7.63679C0 9.04495 0.3885 10.3633 1.064 11.4996C-0.820167 20.6323 7.2275 28.7908 16.5935 27.0933C17.6855 27.6708 18.9315 27.9998 20.2557 27.9998C26.0295 27.9998 29.7267 22.0113 27.1938 16.9713ZM14.112 23.192C11.3797 23.192 8.71033 22.5328 7.13067 20.2765C4.77633 16.9468 7.88083 15.2808 9.4045 16.5501C10.6762 17.6223 10.2772 20.2158 14.0117 20.2158C15.6578 20.2158 17.6902 19.5135 17.6902 17.8813C17.6902 14.5971 10.4043 16.1511 7.5075 12.5706C6.4435 11.2593 6.24283 8.94579 7.5495 7.26812C9.82683 4.33745 16.5095 4.15895 19.383 6.37212C22.036 8.42545 21.3197 11.1508 19.1788 11.1508C16.604 11.1508 17.9573 7.78145 13.8005 7.78145C10.787 7.78145 9.60167 9.92462 11.7238 10.9676C14.5483 12.37 21.9322 11.9325 21.9322 17.5045C21.9228 21.421 18.144 23.192 14.112 23.192Z" fill="#03A9F4"/>
</g>
<defs>
<clipPath id="clip0">
<rect width="28" height="28" fill="white"/>
</clipPath>
</defs>
</svg>
