<svg width="28" height="28" viewBox="0 0 28 28" fill="none" xmlns="http://www.w3.org/2000/svg">
<g clip-path="url(#clip0)">
<path d="M27.0143 16.2093C27.8496 9.17776 26.6129 4.73859 24.3823 2.73076L24.3834 2.72959C20.7831 -0.699239 8.62409 -1.20674 4.31676 2.88359C2.38243 4.88443 1.70109 7.82093 1.62643 11.4563C1.55176 15.0928 1.46309 21.9049 7.81093 23.7529H7.81676L7.81093 26.5751C7.81093 26.5751 7.76776 27.7184 8.49809 27.9483C9.33342 28.2189 9.71142 27.6881 12.3096 24.5848C16.6543 24.9616 19.9909 24.0983 20.3701 23.9723C21.2474 23.6783 26.2116 23.0214 27.0143 16.2093ZM12.7378 22.5991C12.7378 22.5991 9.98792 26.0279 9.13276 26.9181C8.85276 27.2074 8.54592 27.1806 8.55059 26.6066C8.55059 26.2298 8.57159 21.9213 8.57159 21.9213C3.18976 20.3789 3.50709 14.5783 3.56543 11.5438C3.62376 8.50809 4.17909 6.02193 5.81709 4.34776C9.59592 0.804595 20.2558 1.59676 22.9718 4.14943C26.2921 7.09293 25.1103 15.4089 25.1173 15.6924C24.4348 21.3788 20.4121 21.7393 19.6724 21.9854C19.3563 22.0904 16.4221 22.8453 12.7378 22.5991Z" fill="#8E24AA"/>
<path d="M14.259 5.01367C13.8098 5.01367 13.8098 5.71367 14.259 5.71951C17.7438 5.74634 20.6138 8.17534 20.6453 12.6308C20.6453 13.101 21.3337 13.0952 21.3278 12.625H21.3267C21.2893 7.82417 18.1557 5.04051 14.259 5.01367Z" fill="#8E24AA"/>
<path d="M18.8429 11.8929C18.8324 12.3572 19.5196 12.3794 19.5254 11.9092C19.5826 9.26202 17.9504 7.08152 14.8833 6.85169C14.4341 6.81902 14.3874 7.52485 14.8354 7.55752C17.4954 7.75935 18.8966 9.57469 18.8429 11.8929Z" fill="#8E24AA"/>
<path d="M18.1079 14.9034C17.5316 14.5698 16.9447 14.7774 16.7021 15.1053L16.1946 15.7621C15.9367 16.0958 15.4549 16.0514 15.4549 16.0514C11.9386 15.1216 10.9983 11.4419 10.9983 11.4419C10.9983 11.4419 10.9551 10.9438 11.2771 10.6766L11.9117 10.1516C12.2291 9.89961 12.4297 9.29295 12.1066 8.69678C11.2432 7.13695 10.6634 6.59911 10.3683 6.18611C10.0579 5.79761 9.59125 5.71011 9.10592 5.97261H9.09542C8.08625 6.56295 6.98142 7.66778 7.33492 8.80528C7.93809 10.0046 9.04642 13.8278 12.5791 16.7164C14.2392 18.0826 16.8666 19.4826 17.9819 19.8058L17.9924 19.8221C19.0914 20.1884 20.1601 19.0404 20.7306 18.0009V17.9928C20.9837 17.4899 20.8997 17.0139 20.5299 16.7024C19.8742 16.0631 18.8849 15.3573 18.1079 14.9034Z" fill="#8E24AA"/>
<path d="M15.3638 9.4556C16.485 9.52094 17.0287 10.1066 17.087 11.3094C17.108 11.7796 17.7905 11.7469 17.7695 11.2768C17.6948 9.70644 16.8758 8.83144 15.4012 8.74977C14.952 8.72294 14.91 9.42877 15.3638 9.4556Z" fill="#8E24AA"/>
</g>
<defs>
<clipPath id="clip0">
<rect width="28" height="28" fill="white"/>
</clipPath>
</defs>
</svg>
