<svg width="28" height="28" viewBox="0 0 28 28" fill="none" xmlns="http://www.w3.org/2000/svg">
<g clip-path="url(#clip0)">
<path d="M0.650468 28C0.493242 28 0.340288 27.9378 0.226854 27.8231C0.0773176 27.6719 0.0196394 27.4523 0.0758222 27.247L1.8961 20.5999C0.762834 18.5506 0.16533 16.2324 0.166185 13.8791C0.169389 6.22604 6.39736 0 14.0498 0C17.7615 0.00149536 21.2491 1.4473 23.8704 4.07059C26.4914 6.69409 27.9342 10.1815 27.9331 13.8902C27.9297 21.5435 21.7017 27.7699 14.0498 27.7699C14.0498 27.7699 14.044 27.7699 14.0438 27.7699C11.8086 27.7691 9.59273 27.2243 7.61971 26.1925L0.8015 27.9806C0.751512 27.9936 0.70067 28 0.650468 28Z" fill="#E5E5E5"/>
<path d="M0.650391 27.4041L2.5354 20.5205C1.37265 18.5059 0.761047 16.2205 0.761902 13.8792C0.764893 6.55472 6.7254 0.595703 14.0497 0.595703C17.6039 0.597198 20.9401 1.98062 23.4489 4.49155C25.9575 7.00247 27.3385 10.3401 27.3372 13.8899C27.334 21.2142 21.3727 27.174 14.0497 27.174C14.0493 27.174 14.0499 27.174 14.0497 27.174H14.0439C11.8201 27.1732 9.63516 26.6154 7.6944 25.5569L0.650391 27.4041ZM8.0206 23.1522L8.42413 23.3912C10.1194 24.3974 12.0632 24.9295 14.0454 24.9306H14.0497C20.1367 24.9306 25.091 19.9771 25.0936 13.889C25.0946 10.9387 23.9471 8.16437 21.8619 6.07748C19.7765 3.9906 17.0039 2.84067 14.0537 2.83939C7.96185 2.83939 3.00772 7.79224 3.00537 13.8801C3.00452 15.9663 3.58813 17.9979 4.69385 19.756L4.9566 20.1738L3.84064 24.248L8.0206 23.1522Z" fill="white"/>
<path d="M1.11255 26.94L2.9324 20.2944C1.8096 18.3496 1.21936 16.1431 1.22 13.8831C1.22278 6.81223 6.97714 1.05957 14.0474 1.05957C17.4791 1.06107 20.6999 2.39664 23.1213 4.82062C25.5433 7.2446 26.8763 10.4667 26.8751 13.8932C26.8721 20.9643 21.1175 26.7176 14.0481 26.7176C14.0474 26.7176 14.0483 26.7176 14.0481 26.7176H14.0423C11.8956 26.7168 9.78607 26.178 7.9126 25.1569L1.11255 26.94Z" fill="#64B161"/>
<path d="M0.650391 27.4041L2.5354 20.5205C1.37265 18.5059 0.761047 16.2205 0.761902 13.8792C0.764893 6.55472 6.7254 0.595703 14.0497 0.595703C17.6039 0.597198 20.9401 1.98062 23.4489 4.49155C25.9575 7.00247 27.3385 10.3401 27.3372 13.8899C27.334 21.2142 21.3727 27.174 14.0497 27.174C14.0493 27.174 14.0499 27.174 14.0497 27.174H14.0439C11.8201 27.1732 9.63516 26.6154 7.6944 25.5569L0.650391 27.4041ZM8.0206 23.1522L8.42413 23.3912C10.1194 24.3974 12.0632 24.9295 14.0454 24.9306H14.0497C20.1367 24.9306 25.091 19.9771 25.0936 13.889C25.0946 10.9387 23.9471 8.16437 21.8619 6.07748C19.7765 3.9906 17.0039 2.84067 14.0537 2.83939C7.96185 2.83939 3.00772 7.79224 3.00537 13.8801C3.00452 15.9663 3.58813 17.9979 4.69385 19.756L4.9566 20.1738L3.84064 24.248L8.0206 23.1522Z" fill="white"/>
<path fill-rule="evenodd" clip-rule="evenodd" d="M10.7286 8.32563C10.4799 7.77277 10.218 7.76166 9.98135 7.75205C9.78781 7.74372 9.56628 7.74414 9.34518 7.74414C9.12387 7.74414 8.76413 7.82746 8.45993 8.15964C8.15552 8.49182 7.29761 9.29505 7.29761 10.9286C7.29761 12.5624 8.48749 14.1409 8.65347 14.3626C8.81946 14.5841 10.9503 18.0436 14.3249 19.3744C17.1296 20.4806 17.7002 20.2605 18.309 20.2052C18.9178 20.1499 20.2733 19.402 20.5499 18.6267C20.8268 17.8515 20.8268 17.1871 20.7437 17.0481C20.6606 16.9099 20.4393 16.8268 20.1073 16.6608C19.7753 16.4948 18.143 15.6913 17.8386 15.5807C17.5342 15.4698 17.3129 15.4147 17.0916 15.7471C16.87 16.0791 16.2343 16.8268 16.0406 17.0481C15.8468 17.27 15.653 17.2978 15.3211 17.1316C14.9891 16.9652 13.9197 16.6148 12.6512 15.4837C11.6643 14.6038 10.9978 13.5169 10.804 13.1845C10.6105 12.8525 10.8008 12.6884 10.9499 12.5071C11.2184 12.1805 11.669 11.5932 11.7796 11.3719C11.8903 11.1502 11.835 10.9564 11.7521 10.7902C11.669 10.6242 11.0236 8.9823 10.7286 8.32563Z" fill="white"/>
</g>
<defs>
<clipPath id="clip0">
<rect width="28" height="28" fill="white"/>
</clipPath>
</defs>
</svg>
