<svg width="28" height="28" viewBox="0 0 28 28" fill="none" xmlns="http://www.w3.org/2000/svg">
<path fill-rule="evenodd" clip-rule="evenodd" d="M14 28C21.732 28 28 21.732 28 14C28 6.26801 21.732 0 14 0C6.26801 0 0 6.26801 0 14C0 21.732 6.26801 28 14 28ZM22.0538 9.96718C21.8601 9.24748 21.2927 8.68019 20.5731 8.48639C19.2584 8.12661 13.9997 8.12661 13.9997 8.12661C13.9997 8.12661 8.74117 8.12661 7.4265 8.47268C6.72077 8.66635 6.13951 9.24761 5.94584 9.96718C5.5999 11.2817 5.5999 14.008 5.5999 14.008C5.5999 14.008 5.5999 16.7479 5.94584 18.0488C6.13964 18.7683 6.70693 19.3357 7.42662 19.5295C8.75501 19.8893 13.9999 19.8893 13.9999 19.8893C13.9999 19.8893 19.2584 19.8893 20.5731 19.5433C21.2928 19.3496 21.8601 18.7822 22.0539 18.0626C22.3998 16.7479 22.3998 14.0218 22.3998 14.0218C22.3998 14.0218 22.4137 11.2817 22.0538 9.96718ZM12.3256 16.5266L16.6985 14.008L12.3256 11.4893V16.5266Z" fill="white"/>
</svg>
