<svg width="32" height="32" viewBox="0 0 32 32" fill="none" xmlns="http://www.w3.org/2000/svg">
<path d="M16 0C7.16343 0 0 7.16343 0 16C0 24.8365 7.16343 31.9999 16 31.9999C24.8365 31.9999 31.9999 24.8365 31.9999 16C31.9906 7.16738 24.8326 0.00944196 16 0ZM16 29.7142C8.42577 29.7142 2.28569 23.5742 2.28569 16C2.28569 8.42577 8.42577 2.28569 16 2.28569C23.5742 2.28569 29.7142 8.42577 29.7142 16C29.7061 23.5708 23.5708 29.7061 16 29.7142Z" fill="#EDB362"/>
<path d="M13.184 22V20.24H12V19.184H13.184V18.192H12V16.256H13.184V10.64H17.328C17.872 10.64 18.368 10.7467 18.816 10.96C19.264 11.1733 19.6427 11.4613 19.952 11.824C20.272 12.1867 20.5173 12.592 20.688 13.04C20.8587 13.488 20.944 13.9467 20.944 14.416C20.944 15.056 20.8 15.664 20.512 16.24C20.2347 16.816 19.8293 17.2853 19.296 17.648C18.7733 18.0107 18.1493 18.192 17.424 18.192H15.376V19.184H17.488V20.24H15.376V22H13.184ZM15.376 16.256H17.28C17.7813 16.256 18.144 16.0907 18.368 15.76C18.6027 15.4187 18.72 14.9707 18.72 14.416C18.72 13.8293 18.5813 13.376 18.304 13.056C18.0373 12.736 17.664 12.576 17.184 12.576H15.376V16.256Z" fill="#EDB362"/>
</svg>
