<svg width="32" height="32" viewBox="0 0 32 32" fill="none" xmlns="http://www.w3.org/2000/svg">
<path d="M16 0C7.16343 0 0 7.16343 0 16C0 24.8365 7.16343 31.9999 16 31.9999C24.8365 31.9999 31.9999 24.8365 31.9999 16C31.9906 7.16738 24.8326 0.00944196 16 0ZM16 29.7142C8.42577 29.7142 2.28569 23.5742 2.28569 16C2.28569 8.42577 8.42577 2.28569 16 2.28569C23.5742 2.28569 29.7142 8.42577 29.7142 16C29.7061 23.5708 23.5708 29.7061 16 29.7142Z" fill="#EDB362"/>
<circle cx="8" cy="16" r="3" fill="#EDB362"/>
<circle cx="16" cy="16" r="3" fill="#EDB362"/>
<circle cx="24" cy="16" r="3" fill="#EDB362"/>
</svg>
