<svg width="32" height="32" viewBox="0 0 32 32" fill="none" xmlns="http://www.w3.org/2000/svg">
<path d="M16 0C7.16343 0 0 7.16343 0 16C0 24.8365 7.16343 31.9999 16 31.9999C24.8365 31.9999 31.9999 24.8365 31.9999 16C31.9906 7.16738 24.8326 0.00944196 16 0ZM16 29.7142C8.42577 29.7142 2.28569 23.5742 2.28569 16C2.28569 8.42577 8.42577 2.28569 16 2.28569C23.5742 2.28569 29.7142 8.42577 29.7142 16C29.7061 23.5708 23.5708 29.7061 16 29.7142Z" fill="#EDB362"/>
<path d="M14.2 11C14.2 10.3067 14.38 9.75333 14.74 9.34C15.1133 8.91333 15.5667 8.7 16.1 8.7C16.6333 8.7 17.08 8.91333 17.44 9.34C17.8133 9.75333 18 10.3067 18 11L16.4 18.7H15.8L14.2 11ZM16.1 23.2C15.7 23.2 15.3467 23.0467 15.04 22.74C14.7467 22.42 14.6 22.04 14.6 21.6C14.6 21.16 14.7467 20.7867 15.04 20.48C15.3467 20.16 15.7 20 16.1 20C16.5 20 16.8467 20.16 17.14 20.48C17.4467 20.7867 17.6 21.16 17.6 21.6C17.6 22.04 17.4467 22.42 17.14 22.74C16.8467 23.0467 16.5 23.2 16.1 23.2Z" fill="#EDB362"/>
</svg>
